<svg xmlns="http://www.w3.org/2000/svg" viewBox="0 0 384 512">
  <path fill="#e76f00" d="M277.74 312.9c9.8-6.7 23.4-12.5 23.4-12.5s-38.7 7-77.2 10.2c-47.1 3.9-97.7 4.7-123.1 1.3-60.1-8 33-30.1 33-30.1s-36.1-2.4-80.6 19c-52.5 25.4 130 37 224.5 12.1zm-85.4-32.1c-19-42.7-83.1-80.2 0-145.8C296 53.2 242.84 0 242.84 0c21.5 84.5-75.6 110.1-110.7 162.6-23.9 35.9 11.7 74.4 60.2 118.2zm114.6-176.2c.1 0-175.2 43.8-175.2 43.8l-15.7-8.3c-.1 0 109.7-73.1 109.7-73.1l-76.1-2.6c-.1 0 87.4-84.8 87.4-84.8l-13.3-12.1c-.1 0 73.7-72.4 73.7-72.4l14.5 48.3c-.1 0 8.9 156.5-5 160.2z"/>
</svg>