<svg xmlns="http://www.w3.org/2000/svg" viewBox="0 0 1024 1024">
  <path fill="#13aa52" d="M537.6 691.2c-12.8 0-25.6-6.4-32-19.2l-147.2-262.4c-12.8-25.6-6.4-57.6 19.2-70.4 25.6-12.8 57.6-6.4 70.4 19.2l147.2 262.4c12.8 25.6 6.4 57.6-19.2 70.4-12.8 0-25.6 0-38.4 0z"/>
  <path fill="#b8c4c2" d="M832 691.2c-12.8 0-25.6-6.4-32-19.2l-147.2-262.4c-12.8-25.6-6.4-57.6 19.2-70.4 25.6-12.8 57.6-6.4 70.4 19.2l147.2 262.4c12.8 25.6 6.4 57.6-19.2 70.4-12.8 0-25.6 0-38.4 0z"/>
  <path fill="#a6a385" d="M192 691.2c-12.8 0-25.6-6.4-32-19.2l-147.2-262.4c-12.8-25.6-6.4-57.6 19.2-70.4 25.6-12.8 57.6-6.4 70.4 19.2l147.2 262.4c12.8 25.6 6.4 57.6-19.2 70.4-12.8 0-25.6 0-38.4 0z"/>
</svg>