<svg xmlns="http://www.w3.org/2000/svg" viewBox="0 0 24 24">
  <path d="M11.998 24c-.321 0-.641-.084-.923-.251l-2.935-1.738c-.439-.245-.225-.332-.08-.382.586-.204.705-.25 1.33-.605.066-.037.152-.024.219.015l2.255 1.339c.082.045.198.045.272 0l8.795-5.076c.082-.047.134-.141.134-.238V6.922c0-.099-.052-.19-.138-.24l-8.791-5.072c-.081-.047-.189-.047-.271 0L3.075 6.68c-.087.05-.139.142-.139.241v10.15c0 .097.052.189.137.236l2.408 1.391c1.308.654 2.107-.116 2.107-.891V7.787c0-.142.114-.253.256-.253h1.115c.139 0 .255.112.255.253v10.021c0 1.745-.95 2.745-2.604 2.745-.508 0-.909 0-2.026-.55l-2.304-1.325A1.885 1.885 0 0 1 1 17.071V6.922c0-.712.38-1.375.991-1.732L10.787.113c.596-.337 1.389-.337 1.981 0l8.794 5.077c.613.357.992 1.02.992 1.732v10.149c0 .712-.38 1.374-.992 1.731l-8.794 5.078c-.282.167-.602.251-.923.251-.593 0-1.183-.16-1.485-.44-1.466-1.208-1.466-1.243-1.466-1.243l.009-.252s1.142.262 1.388.262c.245 0 .417-.024.573-.075.782-.254 1.673-.821 1.673-3.325 0-.441.003-.777.006-1.133.003-.285-.218-.537-.507-.585"/>
</svg>