<svg xmlns="http://www.w3.org/2000/svg" viewBox="0 0 24 24">
  <path d="M17.128 0a10.134 10.134 0 0 0-2.755.403l-.063.02A10.922 10.922 0 0 0 12.6.258C11.422.238 10.41.524 9.594 1 8.79.721 7.122.24 5.364.336 4.14.403 2.804.775 1.814 1.82.827 2.865.305 4.482.415 6.682c.03.607.203 1.597.49 2.879s.69 2.783 1.193 4.152c.503 1.37 1.054 2.6 1.915 3.436.43.419 1.022.771 1.72.742.49-.02.933-.235 1.315-.552.186.245.385.352.566.451.228.125.45.21.68.266.413.103 1.12.241 1.948.1.282-.047.579-.139.875-.27.011.33.024.653.037.98.041 1.036.067 1.993.378 2.832.05.137.187.843.727 1.466.54.624 1.598 1.013 2.803.755.85-.182 1.931-.51 2.649-1.532.71-1.01 1.03-2.459 1.093-4.809.016-.127.035-.235.055-.336l.169.015h.02c.907.041 1.891-.088 2.713-.47.728-.337 1.279-.678 1.68-1.283.1-.15.21-.331.24-.643s-.149-.8-.446-1.025c-.595-.452-.969-.28-1.37-.197a6.27 6.27 0 0 1-1.202.146c1.156-1.947 1.985-4.015 2.458-5.845.28-1.08.437-2.076.45-2.947.013-.871-.058-1.642-.58-2.309C21.36.6 19.067.024 17.293.004c-.055-.001-.11-.002-.165-.001zm-.047.64c1.678-.016 3.822.455 5.361 2.422.346.442.449 1.088.437 1.884-.013.795-.16 1.747-.429 2.79-.522 2.02-1.508 4.375-2.897 6.488a.756.756 0 0 0 .158.086c.29.12.951.223 2.27-.048.332-.07.575-.117.827.075a.52.52 0 0 1 .183.425.704.704 0 0 1-.13.336c-.255.383-.758.746-1.403 1.045-.571.266-1.39.405-2.116.413-.364.004-.7-.024-.985-.113l-.018-.007c-.11 1.06-.363 3.153-.528 4.108-.132.77-.363 1.382-.804 1.84-.44.458-1.063.734-1.901.914-1.038.223-1.795-.017-2.283-.428-.487-.41-.71-.954-.844-1.287-.092-.23-.14-.528-.186-.926-.046-.398-.08-.885-.103-1.434a51.426 51.426 0 0 1-.03-2.523 3.061 3.061 0 0 1-1.552.76c-.689.117-1.304.002-1.671-.09a2.276 2.276 0 0 1-.52-.201c-.17-.091-.332-.194-.44-.397a.56.56 0 0 1-.057-.381.61.61 0 0 1 .218-.331c.198-.161.46-.251.855-.333.719-.148.97-.249 1.123-.37.13-.104.277-.314.537-.622a1.16 1.16 0 0 1-.003-.041 2.96 2.96 0 0 1-1.33-.358c-.15.158-.916.968-1.85 2.092-.393.47-.827.74-1.285.759-.458.02-.872-.211-1.224-.552-.703-.683-1.264-1.858-1.753-3.186-.488-1.328-.885-2.807-1.167-4.067-.283-1.26-.45-2.276-.474-2.766-.105-2.082.382-3.485 1.217-4.37.836-.885 1.982-1.22 3.099-1.284 2.005-.115 3.909.584 4.294.734.742-.504 1.698-.818 2.892-.798a7.39 7.39 0 0 1 1.681.218l.02-.009a6.854 6.854 0 0 1 .739-.214A9.626 9.626 0 0 1 17.08.642zm.152 1.583a12.686 12.686 0 0 0-2.17.476 12.466 12.466 0 0 1 2.343.488c.018-.01.033-.022.051-.031.197-.147.691-.509 1.182-.496.491.013.926.41 1.23.724.304.314.55.741.504 1.155-.054.503-.258.945-.444 1.315-.222.445-.477.823-.787 1.109-.618.57-1.314.815-2.027.936a6.177 6.177 0 0 1-2.102-.077.844.844 0 0 1-.2.02c-.414.042-.75.033-1.019-.015a1.229 1.229 0 0 1-.319-.116c-.142.464-.515 1.769-.592 2.117-.122.552-.229.989-.359 1.395a10.789 10.789 0 0 1-1.032 2.285c.32.2.59.397.772.563.275.252.358.389.436.54.137.271.189.562.24.848.041.232.085.448.182.617a.786.786 0 0 0 .292.283c.108.064.245.097.388.135.246.066.493.133.707.29.172.124.335.299.44.534.105.235.142.485.123.732a1.62 1.62 0 0 1-.17.677c.285.228.74.438 1.313.447.424.006.847-.11 1.229-.315.525-.28.993-.704 1.366-1.21.373-.507.643-1.089.763-1.676.121-.586.122-1.173.072-1.712-.05-.539-.152-1.031-.226-1.479-.074-.448-.115-.847-.086-1.194.034-.415.186-.794.552-1.135.364-.341.932-.614 1.673-.799a11.208 11.208 0 0 0 2.292-.83c.752-.36 1.45-.8 2.043-1.325.592-.527 1.082-1.14 1.357-1.844.172-.44.293-.894.339-1.343.043-.427.023-.839-.077-1.21-.102-.38-.285-.702-.523-.953a2.637 2.637 0 0 0-.904-.615 3.827 3.827 0 0 0-.663-.19c-.097.004-.197.01-.3.015-.103.004-.209.01-.316.015a4.046 4.046 0 0 1-.474-.031 1.715 1.715 0 0 1-.48-.123 1.214 1.214 0 0 1-.358-.232c-.083-.084-.144-.18-.186-.282-.042-.103-.065-.214-.07-.33a1.009 1.009 0 0 1 .023-.305c.02-.086.048-.17.082-.251a1.904 1.904 0 0 1-.12-.098c-.23-.197-.366-.42-.449-.645a1.216 1.216 0 0 1-.06-.398c-.002-.12.013-.242.041-.363.029-.12.073-.24.13-.354.055-.115.12-.226.193-.332l.036-.052c-.134-.073-.286-.145-.456-.207a8.632 8.632 0 0 0-1.135-.318c-.795-.177-1.336-.255-1.336-.255l-.001.002z"/>
</svg>