<svg xmlns="http://www.w3.org/2000/svg" viewBox="0 0 432.071 445.383">
  <path fill="#336791" d="M216.035 0C122.705 0 88.073 42.353 88.073 93.208c0 31.844 15.045 54.082 15.045 54.082-34.766 4.366-32.593 56.567 3.357 56.567h7.627c12.074 23.984 32.044 44.853 55.537 55.791-43.987 20.579-75.199 59.065-75.199 103.648 0 69.295 71.562 82.087 157.595 82.087 86.031 0 157.593-12.792 157.593-82.087 0-44.583-31.212-83.069-75.199-103.648 23.494-10.938 43.463-31.807 55.537-55.791h7.627c35.95 0 38.123-52.201 3.357-56.567 0 0 15.045-22.238 15.045-54.082C416.595 42.353 381.963 0 216.035 0zm0 25.12c135.994 0 165.514 31.129 165.514 68.088 0 36.959-29.52 68.087-165.514 68.087-135.994 0-165.514-31.128-165.514-68.087 0-36.959 29.52-68.088 165.514-68.088z"/>
</svg>