<svg xmlns="http://www.w3.org/2000/svg" viewBox="0 0 24 24">
  <path d="M3 3h18v18H3V3zm10.819 12.093v2.02c.33.171.666.316 1.009.435.377.13.785.194 1.225.194.436 0 .847-.062 1.233-.186.386-.124.723-.306 1.012-.547.288-.241.515-.542.68-.903.165-.361.247-.784.247-1.27 0-.362-.053-.678-.16-.947-.106-.27-.258-.507-.456-.71a3.35 3.35 0 0 0-.737-.563 7.51 7.51 0 0 0-.997-.48 8.858 8.858 0 0 1-.722-.355 2.333 2.333 0 0 1-.51-.355.955.955 0 0 1-.19-.232.558.558 0 0 1-.058-.258c0-.244.087-.436.262-.575.175-.139.43-.208.765-.208.21 0 .426.03.65.09.223.06.436.128.64.205.203.077.385.154.547.232.161.078.284.137.369.178v-1.86a4.602 4.602 0 0 0-.884-.29 5.488 5.488 0 0 0-1.183-.119c-.436 0-.847.064-1.233.193-.386.13-.723.319-1.012.567-.288.249-.515.56-.68.933-.165.373-.247.804-.247 1.293 0 .478.097.892.291 1.241.194.35.445.645.753.887.308.241.64.437.997.587.357.15.695.292 1.012.424.317.133.583.27.8.413.217.143.325.306.325.489 0 .137-.039.254-.116.351a.91.91 0 0 1-.305.247 1.55 1.55 0 0 1-.44.143 2.986 2.986 0 0 1-.524.046c-.467 0-.916-.086-1.345-.26a4.692 4.692 0 0 1-1.183-.682zm-3.052-2.747H8.14v5.517H6.832v-5.517H4.205V11h6.562v1.346z"/>
</svg>